<svg xmlns="http://www.w3.org/2000/svg" viewBox="0 0 440.16 440.46"><title>Button_edit</title><path d="M395,440H113.3a130.62,130.62,0,0,1-15.18-.39c3.47.41-.91-.24-1.35-.33q-2-.41-3.9-1a55.73,55.73,0,0,1-6.27-2.14c3.13,1.3-.83-.49-1.2-.68q-1.75-.89-3.43-1.9t-3.29-2.11q-1.07-.74-2.11-1.52,2,1.52,0-.1c-1.89-1.8-3.82-3.5-5.57-5.45-.27-.3-3-3.62-1-1-.79-1-1.54-2.11-2.25-3.19-1.45-2.2-2.61-4.51-3.87-6.82-2-3.65.81,2.7-.57-1.25-.59-1.67-1.18-3.33-1.66-5a65.29,65.29,0,0,1-1.45-6.55c.59,3.44-.06-1-.09-1.43C60,397.77,60,396.39,60,395c0-.25,0-.51,0-.76,0-1.73,0-3.45,0-5.18V118.18c0-4.32,0-8.64,0-13,0-1.92.14-3.82.25-5.74.25-4.31-.76,2.77.21-1.39.3-1.31.53-2.63.87-3.93s.71-2.57,1.12-3.83c.2-.61,2.33-5.57.9-2.56a67.9,67.9,0,0,1,3.73-6.91c.69-1.11,1.44-2.17,2.18-3.24,2.35-3.4-2,1.94.88-1.05,1.8-1.89,3.5-3.82,5.45-5.57.3-.27,3.62-3,1-1,1.37-1.06,2.82-2,4.29-3,1.86-1.17,3.8-2.12,5.72-3.17,3.65-2-2.7.81,1.25-.57,1.25-.44,2.49-.9,3.76-1.29a64.17,64.17,0,0,1,7.83-1.82c-3.44.59,1-.06,1.43-.09,1.38-.1,2.77-.13,4.15-.14H376c5.81,0,11.62,0,17.43,0a73.72,73.72,0,0,1,8.49.39c-3.47-.41.91.24,1.35.33q2,.41,3.9,1t3.8,1.2c.43.15,4.33,1.91,1.3.47a67.9,67.9,0,0,1,6.91,3.73c1.11.69,2.17,1.44,3.24,2.18q2.07,1.53.06,0,1,.83,2,1.7A60.83,60.83,0,0,1,429,75.59c.27.3,3,3.62,1,1,.79,1,1.54,2.11,2.25,3.19,1.45,2.2,2.61,4.51,3.87,6.82,2,3.65-.81-2.7.57,1.25.59,1.67,1.18,3.33,1.66,5q.54,1.93,1,3.9c.09.44.74,4.83.33,1.35A64.61,64.61,0,0,1,440,105c0,.25,0,.5,0,.76,0,5.08,0,10.16,0,15.23v269.8c0,1.33,0,2.66,0,4a65.83,65.83,0,0,1-.39,7.1c.41-3.47-.24.91-.33,1.35q-.41,2-1,3.9t-1.2,3.8q-.44,1.25-.94,2.47,1-2.34-.09,0c-1.16,2.11-2.22,4.24-3.52,6.27-.59.92-1.21,1.8-1.83,2.7-2.35,3.4,2-1.94-.88,1.05-1.8,1.89-3.5,3.82-5.45,5.57-.3.27-3.62,3-1,1-1,.79-2.11,1.54-3.19,2.25-2.2,1.45-4.51,2.61-6.82,3.87-3.65,2,2.7-.81-1.25.57-1.25.44-2.49.9-3.76,1.29a64.17,64.17,0,0,1-7.83,1.82c3.44-.59-1,.06-1.43.09-1.38.1-2.76.13-4.15.14-7.84.09-15.37,6.83-15,15s6.59,15.1,15,15a76.33,76.33,0,0,0,63.83-35.72c7.85-12.52,11.17-27,11.17-41.63V152.77c0-15.71.06-31.42,0-47.12A76.12,76.12,0,0,0,394.45,30c-46-.32-92,0-138,0H107.55c-14.31,0-28.33,3.09-40.72,10.49A76.1,76.1,0,0,0,30,103.61c-.32,13.19,0,26.42,0,39.62V389.37c0,9.11.43,18.2,3.12,27A76.29,76.29,0,0,0,84.9,467.25c15.83,4.44,34,2.75,50.26,2.75H395c7.85,0,15.36-6.9,15-15S403.41,440,395,440Z" transform="translate(-29.87 -29.86)"/><path d="M156.79,313.21l32.43,32.43a15,15,0,1,0,21.21-21.21L178,292a15,15,0,0,0-21.21,21.21l32.43,32.43a15,15,0,1,0,21.21-21.21L178,292a15,15,0,0,0-21.21,21.21Z" transform="translate(-29.87 -29.86)"/><path d="M318.94,124.49l-83.1,83.1c-30.93,30.93-62.61,61.26-92.85,92.85-6.06,6.33-8,17.46-10.72,25.56l-11.64,34.91c-3.53,10.6,7.85,22,18.45,18.45l29.35-9.78,18.64-6.21c4.22-1.41,8.32-2.5,11.73-5.61,9.65-8.81,18.58-18.58,27.81-27.81L344.1,212.47l31.41-31.41a15.23,15.23,0,0,0,0-21.21l-35.36-35.36a15,15,0,1,0-21.21,21.21l35.36,35.36V159.84l-59.93,59.93-95,95-21.8,21.8,6.62-3.86-53,17.68,18.45,18.45,17.68-53-3.86,6.62,59.93-59.93,95-95,21.8-21.8a15,15,0,1,0-21.21-21.21Z" transform="translate(-29.87 -29.86)"/></svg>